<svg width="198" height="56" viewBox="0 0 198 56" fill="none" xmlns="http://www.w3.org/2000/svg">
<path d="M36.1004 9.1C36.1004 4.62649 32.4739 1 28.0004 1C23.5269 1 19.9004 4.62649 19.9004 9.1V28C19.9004 32.4735 23.5269 36.1 28.0004 36.1C32.4739 36.1 36.1004 32.4735 36.1004 28V9.1Z" stroke="url(#paint0_linear_1959_419)" stroke-width="1.8" stroke-linecap="round" stroke-linejoin="round"/>
<path d="M47.0924 20.3633C50.2555 17.2001 50.2555 12.0715 47.0924 8.90823C43.929 5.74498 38.8004 5.74498 35.6372 8.90823L22.2729 22.2726C19.1096 25.4358 19.1096 30.5645 22.2729 33.7276C25.4361 36.891 30.5647 36.891 33.728 33.7276L47.0924 20.3633Z" stroke="url(#paint1_linear_1959_419)" stroke-width="1.8" stroke-linecap="round" stroke-linejoin="round"/>
<path d="M46.9004 36.1C51.3739 36.1 55.0004 32.4735 55.0004 28C55.0004 23.5265 51.3739 19.9 46.9004 19.9H28.0004C23.5269 19.9 19.9004 23.5265 19.9004 28C19.9004 32.4735 23.5269 36.1 28.0004 36.1H46.9004Z" stroke="url(#paint2_linear_1959_419)" stroke-width="1.8" stroke-linecap="round" stroke-linejoin="round"/>
<path d="M35.6371 47.0918C38.8004 50.2552 43.9291 50.2552 47.0923 47.0918C50.2556 43.9287 50.2556 38.8 47.0923 35.6367L33.7279 22.2725C30.5647 19.1092 25.4361 19.1092 22.2728 22.2725C19.1096 25.4357 19.1096 30.5643 22.2728 33.7275L35.6371 47.0918Z" stroke="url(#paint3_linear_1959_419)" stroke-width="1.8" stroke-linecap="round" stroke-linejoin="round"/>
<path d="M19.9004 46.9C19.9004 51.3735 23.5269 55 28.0004 55C32.4739 55 36.1004 51.3735 36.1004 46.9V28C36.1004 23.5265 32.4739 19.9 28.0004 19.9C23.5269 19.9 19.9004 23.5265 19.9004 28V46.9Z" stroke="url(#paint4_linear_1959_419)" stroke-width="1.8" stroke-linecap="round" stroke-linejoin="round"/>
<path d="M8.90857 35.6368C5.74532 38.8 5.74532 43.9287 8.90857 47.0918C12.0718 50.2552 17.2005 50.2552 20.3637 47.0918L33.728 33.7275C36.8913 30.5643 36.8913 25.4357 33.728 22.2725C30.5648 19.1092 25.4362 19.1092 22.2728 22.2725L8.90857 35.6368Z" stroke="url(#paint5_linear_1959_419)" stroke-width="1.8" stroke-linecap="round" stroke-linejoin="round"/>
<path d="M9.1 19.9C4.62649 19.9 1 23.5265 1 28C1 32.4735 4.62649 36.1 9.1 36.1H28C32.4735 36.1 36.1 32.4735 36.1 28C36.1 23.5265 32.4735 19.9 28 19.9H9.1Z" stroke="url(#paint6_linear_1959_419)" stroke-width="1.8" stroke-linecap="round" stroke-linejoin="round"/>
<path d="M20.3638 8.90823C17.2005 5.74498 12.0718 5.74498 8.90856 8.90823C5.74532 12.0715 5.74532 17.2001 8.90857 20.3635L22.273 33.7276C25.4362 36.891 30.5648 36.891 33.728 33.7276C36.8913 30.5645 36.8913 25.4358 33.7281 22.2726L20.3638 8.90823Z" stroke="url(#paint7_linear_1959_419)" stroke-width="1.8" stroke-linecap="round" stroke-linejoin="round"/>
<path d="M66.8516 37V19.832H70.2266C70.8359 20.7852 72.0742 22.707 73.9414 25.5977C75.8086 28.4883 76.9453 30.2461 77.3516 30.8711C77.4688 31.0508 77.668 31.3555 77.9492 31.7852C78.2383 32.207 78.4414 32.5078 78.5586 32.6875C78.5039 30.0078 78.4766 28.6172 78.4766 28.5156V19.832H81.3711V37H77.9492L70.2031 24.9297L69.6406 24.0039C69.7031 26.0664 69.7344 27.5156 69.7344 28.3516V37H66.8516ZM90.7227 37.2461C88.6523 37.2461 87.0391 36.6523 85.8828 35.4648C84.7344 34.2695 84.1602 32.6211 84.1602 30.5195C84.1602 28.4727 84.7031 26.8438 85.7891 25.6328C86.875 24.4219 88.3555 23.8125 90.2305 23.8047C92.0039 23.8047 93.3789 24.3594 94.3555 25.4688C95.3398 26.5781 95.832 28.0508 95.832 29.8867C95.832 30.0195 95.8281 30.2344 95.8203 30.5312C95.8203 30.8281 95.8203 31.0469 95.8203 31.1875H87.2539C87.2852 32.3906 87.6133 33.3242 88.2383 33.9883C88.8711 34.6445 89.7383 34.9727 90.8398 34.9727C92.2461 34.9727 93.5977 34.6055 94.8945 33.8711L95.3281 36.0508C94.0391 36.8477 92.5039 37.2461 90.7227 37.2461ZM87.3125 29.2539H92.9375C92.9375 28.207 92.6992 27.4023 92.2227 26.8398C91.7461 26.2773 91.0859 25.9961 90.2422 25.9961C89.4531 25.9961 88.7852 26.2695 88.2383 26.8164C87.6992 27.3633 87.3906 28.1758 87.3125 29.2539ZM107.633 35.9922C106.609 36.8281 105.262 37.2461 103.59 37.2461C101.918 37.2461 100.57 36.8281 99.5469 35.9922C98.5312 35.1562 98.0234 33.9297 98.0234 32.3125V24.1211H101.105V32.1953C101.105 33.1562 101.305 33.8516 101.703 34.2812C102.109 34.7109 102.75 34.9258 103.625 34.9258C104.484 34.9258 105.109 34.7148 105.5 34.293C105.898 33.8633 106.098 33.1641 106.098 32.1953V24.1211H109.168V32.3125C109.168 33.9219 108.656 35.1484 107.633 35.9922ZM111.992 37V24.1211H114.57L114.969 26.0898C115.812 24.7383 117.035 24.0625 118.637 24.0625C118.973 24.0625 119.246 24.0781 119.457 24.1094L119.41 26.6758C119.098 26.6289 118.773 26.6055 118.438 26.6055C117.305 26.6055 116.457 26.9062 115.895 27.5078C115.34 28.1094 115.062 28.9453 115.062 30.0156V37H111.992ZM124.637 37.2461C123.441 37.2461 122.473 36.918 121.73 36.2617C120.996 35.5977 120.629 34.6445 120.629 33.4023C120.629 32.0664 121.066 31.0781 121.941 30.4375C122.816 29.7891 124.137 29.3789 125.902 29.207C126.145 29.1758 126.406 29.1445 126.688 29.1133C126.969 29.082 127.285 29.0508 127.637 29.0195C127.988 28.9883 128.266 28.9609 128.469 28.9375V28.2578C128.469 27.4766 128.289 26.9102 127.93 26.5586C127.57 26.1992 127.023 26.0195 126.289 26.0195C125.242 26.0195 123.949 26.3125 122.41 26.8984C122.402 26.875 122.273 26.5195 122.023 25.832C121.773 25.1445 121.645 24.793 121.637 24.7773C123.152 24.1289 124.793 23.8047 126.559 23.8047C128.293 23.8047 129.555 24.1836 130.344 24.9414C131.133 25.6914 131.527 26.9102 131.527 28.5977V37H129.254C129.246 36.9688 129.16 36.707 128.996 36.2148C128.832 35.7227 128.75 35.4609 128.75 35.4297C128.109 36.0547 127.48 36.5156 126.863 36.8125C126.254 37.1016 125.512 37.2461 124.637 37.2461ZM125.469 35.0664C126.18 35.0664 126.797 34.8984 127.32 34.5625C127.852 34.2188 128.23 33.8047 128.457 33.3203V30.8359C128.434 30.8359 128.227 30.8516 127.836 30.8828C127.453 30.9141 127.246 30.9297 127.215 30.9297C125.973 31.0391 125.062 31.2734 124.484 31.6328C123.906 31.9922 123.617 32.5703 123.617 33.3672C123.617 33.9141 123.777 34.3359 124.098 34.6328C124.418 34.9219 124.875 35.0664 125.469 35.0664ZM134.914 37V19.832H145.074L144.957 22.3516H138.066V27.2266H144.617V29.7227H138.066V37H134.914ZM152.938 34.9141C153.977 34.9141 154.758 34.5352 155.281 33.7773C155.805 33.0195 156.066 31.9336 156.066 30.5195C156.066 29.0898 155.805 28 155.281 27.25C154.758 26.5 153.969 26.125 152.914 26.125C151.875 26.125 151.09 26.5039 150.559 27.2617C150.035 28.0117 149.773 29.1016 149.773 30.5312C149.773 31.9375 150.039 33.0195 150.57 33.7773C151.102 34.5352 151.891 34.9141 152.938 34.9141ZM152.855 37.2461C150.949 37.2461 149.449 36.6289 148.355 35.3945C147.262 34.1602 146.715 32.5352 146.715 30.5195C146.715 28.4414 147.262 26.8047 148.355 25.6094C149.449 24.4062 150.992 23.8047 152.984 23.8047C154.906 23.8047 156.41 24.418 157.496 25.6445C158.59 26.8633 159.137 28.4883 159.137 30.5195C159.137 32.5742 158.586 34.2109 157.484 35.4297C156.383 36.6406 154.84 37.2461 152.855 37.2461ZM161.656 37V24.1211H164.234L164.633 26.0898C165.477 24.7383 166.699 24.0625 168.301 24.0625C168.637 24.0625 168.91 24.0781 169.121 24.1094L169.074 26.6758C168.762 26.6289 168.438 26.6055 168.102 26.6055C166.969 26.6055 166.121 26.9062 165.559 27.5078C165.004 28.1094 164.727 28.9453 164.727 30.0156V37H161.656ZM173.434 42.7656L173.258 40.2812H174.816C176.621 40.2812 177.883 40.0391 178.602 39.5547C179.32 39.0781 179.68 38.1992 179.68 36.918C179.68 36.3945 179.656 35.8281 179.609 35.2188C179.406 35.5 179.211 35.7344 179.023 35.9219C178.844 36.1016 178.613 36.2812 178.332 36.4609C178.059 36.6406 177.727 36.7773 177.336 36.8711C176.953 36.957 176.516 37 176.023 37C174.32 37 172.918 36.3867 171.816 35.1602C170.723 33.9336 170.176 32.3516 170.176 30.4141C170.176 29.3828 170.328 28.4453 170.633 27.6016C170.938 26.75 171.352 26.0508 171.875 25.5039C172.398 24.957 173 24.5391 173.68 24.25C174.367 23.9531 175.098 23.8047 175.871 23.8047C177.598 23.8047 178.883 24.4336 179.727 25.6914L179.938 24.1211H182.68V36.0859C182.68 36.7266 182.648 37.3008 182.586 37.8086C182.523 38.3242 182.414 38.8164 182.258 39.2852C182.102 39.7617 181.895 40.1758 181.637 40.5273C181.387 40.8789 181.07 41.1992 180.688 41.4883C180.305 41.7773 179.852 42.0117 179.328 42.1914C178.812 42.3789 178.211 42.5195 177.523 42.6133C176.836 42.7148 176.062 42.7656 175.203 42.7656H173.434ZM176.516 34.8555C178.633 34.8555 179.703 33.4375 179.727 30.6016V30.1562C179.711 28.8828 179.445 27.8984 178.93 27.2031C178.414 26.5078 177.66 26.1562 176.668 26.1484C175.543 26.1484 174.691 26.5352 174.113 27.3086C173.535 28.0742 173.246 29.1094 173.246 30.4141C173.246 31.6719 173.535 32.7266 174.113 33.5781C174.699 34.4297 175.5 34.8555 176.516 34.8555ZM191.668 37.2461C189.598 37.2461 187.984 36.6523 186.828 35.4648C185.68 34.2695 185.105 32.6211 185.105 30.5195C185.105 28.4727 185.648 26.8438 186.734 25.6328C187.82 24.4219 189.301 23.8125 191.176 23.8047C192.949 23.8047 194.324 24.3594 195.301 25.4688C196.285 26.5781 196.777 28.0508 196.777 29.8867C196.777 30.0195 196.773 30.2344 196.766 30.5312C196.766 30.8281 196.766 31.0469 196.766 31.1875H188.199C188.23 32.3906 188.559 33.3242 189.184 33.9883C189.816 34.6445 190.684 34.9727 191.785 34.9727C193.191 34.9727 194.543 34.6055 195.84 33.8711L196.273 36.0508C194.984 36.8477 193.449 37.2461 191.668 37.2461ZM188.258 29.2539H193.883C193.883 28.207 193.645 27.4023 193.168 26.8398C192.691 26.2773 192.031 25.9961 191.188 25.9961C190.398 25.9961 189.73 26.2695 189.184 26.8164C188.645 27.3633 188.336 28.1758 188.258 29.2539Z" fill="url(#paint8_radial_1959_419)"/>
<defs>
<linearGradient id="paint0_linear_1959_419" x1="28.0004" y1="1" x2="28.0004" y2="36.1" gradientUnits="userSpaceOnUse">
<stop stop-color="#0099FF"/>
<stop offset="0.552885" stop-color="#FFB200"/>
<stop offset="0.975962" stop-color="#0099FF"/>
</linearGradient>
<linearGradient id="paint1_linear_1959_419" x1="34.6826" y1="6.53579" x2="34.6826" y2="36.1001" gradientUnits="userSpaceOnUse">
<stop stop-color="#0099FF"/>
<stop offset="0.552885" stop-color="#FFB200"/>
<stop offset="0.975962" stop-color="#0099FF"/>
</linearGradient>
<linearGradient id="paint2_linear_1959_419" x1="37.4504" y1="19.9" x2="37.4504" y2="36.1" gradientUnits="userSpaceOnUse">
<stop stop-color="#0099FF"/>
<stop offset="0.552885" stop-color="#FFB200"/>
<stop offset="0.975962" stop-color="#0099FF"/>
</linearGradient>
<linearGradient id="paint3_linear_1959_419" x1="34.6826" y1="19.9" x2="34.6826" y2="49.4643" gradientUnits="userSpaceOnUse">
<stop stop-color="#0099FF"/>
<stop offset="0.552885" stop-color="#FFB200"/>
<stop offset="0.975962" stop-color="#0099FF"/>
</linearGradient>
<linearGradient id="paint4_linear_1959_419" x1="28.0004" y1="19.9" x2="28.0004" y2="55" gradientUnits="userSpaceOnUse">
<stop stop-color="#0099FF"/>
<stop offset="0.552885" stop-color="#FFB200"/>
<stop offset="0.975962" stop-color="#0099FF"/>
</linearGradient>
<linearGradient id="paint5_linear_1959_419" x1="21.3183" y1="19.9" x2="21.3183" y2="49.4643" gradientUnits="userSpaceOnUse">
<stop stop-color="#0099FF"/>
<stop offset="0.552885" stop-color="#FFB200"/>
<stop offset="0.975962" stop-color="#0099FF"/>
</linearGradient>
<linearGradient id="paint6_linear_1959_419" x1="18.55" y1="19.9" x2="18.55" y2="36.1" gradientUnits="userSpaceOnUse">
<stop stop-color="#0099FF"/>
<stop offset="0.552885" stop-color="#FFB200"/>
<stop offset="0.975962" stop-color="#0099FF"/>
</linearGradient>
<linearGradient id="paint7_linear_1959_419" x1="21.3183" y1="6.53579" x2="21.3183" y2="36.1001" gradientUnits="userSpaceOnUse">
<stop stop-color="#0099FF"/>
<stop offset="0.552885" stop-color="#FFB200"/>
<stop offset="0.975962" stop-color="#0099FF"/>
</linearGradient>
<radialGradient id="paint8_radial_1959_419" cx="0" cy="0" r="1" gradientUnits="userSpaceOnUse" gradientTransform="translate(116.991 36.0769) rotate(-7.39778) scale(89.6141 20.2466)">
<stop offset="0.509615" stop-color="#0099FF"/>
<stop offset="0.966346" stop-color="#FFB200"/>
</radialGradient>
</defs>
</svg>
