<svg width="17" height="18" viewBox="0 0 17 18" fill="none" xmlns="http://www.w3.org/2000/svg">
<path d="M5.21111 12.6087L3.71206 13.6689L3.33503 15.288L4.8477 14.8833L5.8507 13.2872L5.21111 12.6087ZM6.53027 11.2816L7.09991 11.8859L7.18258 11.855C8.03386 11.5331 8.89058 10.8729 9.74822 9.84168C10.783 8.59839 12.5292 6.38457 14.9785 3.21178C15.0088 3.17277 15.0243 3.12319 15.022 3.07272C15.0197 3.02225 14.9997 2.9745 14.9661 2.93877C14.9324 2.90304 14.8874 2.8819 14.8398 2.87945C14.7922 2.877 14.7455 2.89343 14.7087 2.92554C11.7233 5.52102 9.63647 7.37438 8.45722 8.47503C7.47966 9.38677 6.85824 10.2947 6.56025 11.1919L6.53027 11.2816ZM5.97153 16.5689L0.845703 17.9462L2.11762 12.4805L4.84679 10.5491C5.25805 9.31931 6.06148 8.14573 7.25708 7.02838C8.45632 5.90846 10.5568 4.04385 13.5585 1.43456C13.9437 1.09675 14.4337 0.923461 14.9329 0.948557C15.4321 0.973652 15.9045 1.19533 16.2579 1.57026C16.6112 1.9452 16.82 2.44643 16.8435 2.976C16.867 3.50556 16.7035 4.02539 16.3849 4.43387C13.9228 7.62272 12.1652 9.85035 11.1119 11.1168C10.0617 12.3793 8.95569 13.2307 7.79401 13.6708L5.97153 16.5689Z" fill="white"/>
</svg>
